<svg width="300" height="300" viewBox="0 0 300 300" fill="none" xmlns="http://www.w3.org/2000/svg">
<g filter="url(#filter0_d_13_42)">
<rect x="15" y="20" width="250" height="250" rx="32" fill="#14A1DD"/>
</g>
<path d="M206 66H159C150.348 66 143.333 73.0142 143.333 81.6667V128.667C143.333 137.319 150.348 144.333 159 144.333H206C214.652 144.333 221.667 137.319 221.667 128.667V81.6667C221.667 73.0142 214.652 66 206 66Z" fill="#E6E6E6"/>
<path opacity="0.7" d="M143.333 105.167H135.5C120.726 105.167 113.347 105.167 108.757 109.757C104.167 114.347 104.167 121.726 104.167 136.5V152.167C104.167 166.94 104.167 174.319 108.757 178.91C113.347 183.5 120.726 183.5 135.5 183.5H151.167C165.94 183.5 173.319 183.5 177.91 178.91C182.5 174.319 182.5 166.94 182.5 152.167V144.333H174.667C159.893 144.333 152.514 144.333 147.924 139.743C143.333 135.153 143.333 127.774 143.333 113V105.167Z" fill="#E6E6E6"/>
<path opacity="0.4" d="M104.167 144.333V152.167C104.167 166.94 104.167 174.319 108.757 178.91C113.347 183.5 120.726 183.5 135.5 183.5H143.333V191.333C143.333 206.107 143.333 213.486 138.743 218.076C134.153 222.667 126.774 222.667 112 222.667H96.3333C81.5597 222.667 74.1807 222.667 69.5903 218.076C65 213.486 65 206.107 65 191.333V175.667C65 160.893 65 153.514 69.5903 148.924C74.1807 144.333 81.5597 144.333 96.3333 144.333H104.167Z" fill="#E6E6E6"/>
<defs>
<filter id="filter0_d_13_42" x="0" y="0" width="300" height="300" filterUnits="userSpaceOnUse" color-interpolation-filters="sRGB">
<feFlood flood-opacity="0" result="BackgroundImageFix"/>
<feColorMatrix in="SourceAlpha" type="matrix" values="0 0 0 0 0 0 0 0 0 0 0 0 0 0 0 0 0 0 127 0" result="hardAlpha"/>
<feMorphology radius="5" operator="dilate" in="SourceAlpha" result="effect1_dropShadow_13_42"/>
<feOffset dx="10" dy="5"/>
<feGaussianBlur stdDeviation="10"/>
<feComposite in2="hardAlpha" operator="out"/>
<feColorMatrix type="matrix" values="0 0 0 0 0 0 0 0 0 0 0 0 0 0 0 0 0 0 0.1 0"/>
<feBlend mode="normal" in2="BackgroundImageFix" result="effect1_dropShadow_13_42"/>
<feBlend mode="normal" in="SourceGraphic" in2="effect1_dropShadow_13_42" result="shape"/>
</filter>
</defs>
</svg>
